# xmcd CD database file
#
# Track frame offsets:
#	150
#	13288
#	31380
#	51998
#	68558
#	81200
#	95332
#	109082
#	127445
#	148846
#
# Disc length: 2197 seconds
#
# Revision: 0
# Processed by: cddbd v1.5.2PL0 Copyright (c) Steve Scherf et al.
# Submitted via: CDex 1.51
#
DISCID=9108930a
DTITLE=Scotty Anderson - 2nd Time Around
DYEAR=1987
DGENRE=Jazz
TTITLE0=We're From Dixie
TTITLE1=Djangos Castle
TTITLE2=You Win Again
TTITLE3=Detour
TTITLE4=Bud's Bounce
TTITLE5=Columbus, Georgia
TTITLE6=I'll Sail My Ship Alone
TTITLE7=Steel Guitar Rag
TTITLE8=Sleepwalk
TTITLE9=Orange Blossom Special
EXTD=YEAR: 1987
EXTT0=
EXTT1=
EXTT2=
EXTT3=
EXTT4=
EXTT5=
EXTT6=
EXTT7=
EXTT8=
EXTT9=
PLAYORDER=
